P3
6 4
255
0
10
15
25
45
25
45
124
56
113
32
42
150
100
255
180
100
10
25
25
25
45
124
56
113
32
42
150
100
255
180
100
10
80
90
40
45
124
56
113
32
42
150
100
255
180
100
10
100
40
50
125
25
235
113
32
42
150
100
255
180
100
10
0
0
0
25
150
25
45
124
56
